<?xml version="1.0" encoding="UTF-8" standalone="no"?>
<svg
   xmlns:dc="http://purl.org/dc/elements/1.1/"
   xmlns:cc="http://creativecommons.org/ns#"
   xmlns:rdf="http://www.w3.org/1999/02/22-rdf-syntax-ns#"
   xmlns:svg="http://www.w3.org/2000/svg"
   xmlns="http://www.w3.org/2000/svg"
   xmlns:sodipodi="http://sodipodi.sourceforge.net/DTD/sodipodi-0.dtd"
   xmlns:inkscape="http://www.inkscape.org/namespaces/inkscape"
   viewBox="0 0 153.323 30.323"
   version="1.1"
   id="svg92"
   sodipodi:docname="logo.svg"
   inkscape:version="1.0.2 (e86c870879, 2021-01-15)">
  <metadata
     id="metadata96">
    <rdf:RDF>
      <cc:Work
         rdf:about="">
        <dc:format>image/svg+xml</dc:format>
        <dc:type
           rdf:resource="http://purl.org/dc/dcmitype/StillImage" />
      </cc:Work>
    </rdf:RDF>
  </metadata>
  <sodipodi:namedview
     pagecolor="#ffffff"
     bordercolor="#666666"
     borderopacity="1"
     objecttolerance="10"
     gridtolerance="10"
     guidetolerance="10"
     inkscape:pageopacity="0"
     inkscape:pageshadow="2"
     inkscape:window-width="1360"
     inkscape:window-height="699"
     id="namedview94"
     showgrid="false"
     inkscape:zoom="1.9416001"
     inkscape:cx="100.27972"
     inkscape:cy="28.993246"
     inkscape:window-x="0"
     inkscape:window-y="32"
     inkscape:window-maximized="1"
     inkscape:current-layer="svg92" />
  <defs
     id="defs74">
    <path
       id="d"
       d="M.505.087h151.066v29.334H.505z" />
    <filter
       id="e"
       width="1.025"
       height="1.044"
       x="-.002"
       y="-.014"
       color-interpolation-filters="sRGB">
      <feGaussianBlur
         stdDeviation=".079"
         id="feGaussianBlur64" />
    </filter>
    <path
       id="a"
       d="M.505.087h151.066v29.334H.505z" />
    <filter
       id="c"
       width="1.016"
       height="1.016"
       x="-.008"
       y="-.008"
       color-interpolation-filters="sRGB">
      <feGaussianBlur
         stdDeviation=".081"
         id="feGaussianBlur68" />
    </filter>
    <filter
       id="b"
       width="1.003"
       height="1.017"
       x="-.002"
       y="-.008"
       color-interpolation-filters="sRGB">
      <feGaussianBlur
         stdDeviation=".072"
         id="feGaussianBlur71" />
    </filter>
    <filter
       id="c-3"
       width="1.016"
       height="1.016"
       x="-0.0080000004"
       y="-0.0080000004"
       color-interpolation-filters="sRGB">
      <feGaussianBlur
         stdDeviation=".081"
         id="feGaussianBlur68-6" />
    </filter>
  </defs>
  <text
     filter="url(#b)"
     font-family="AnjaliOldLipi"
     font-size="14.111px"
     font-weight="400"
     letter-spacing="0"
     opacity="0.094"
     transform="matrix(1.13145,0,0,1.13145,24.612,3.454)"
     word-spacing="0"
     style="line-height:1.25;-inkscape-font-specification:'AnjaliOldLipi, Normal';font-variant-ligatures:normal;font-variant-caps:normal;font-variant-numeric:normal;font-variant-east-asian:normal;white-space:pre;shape-inside:url(#a);"
     id="text80"
     xml:space="preserve"><tspan
       x="0.50585938"
       y="19.942671"><tspan
         style="font-weight:700;font-size:19.756px;font-family:'Noto Sans CJK JP';-inkscape-font-specification:'Noto Sans CJK JP, Bold';font-variant-ligatures:normal;font-variant-caps:normal;font-variant-numeric:normal;font-variant-east-asian:normal">ashrayBuild</tspan></tspan></text>
  <text
     fill="#0aa8a7"
     filter="url(#e)"
     font-family="AnjaliOldLipi"
     font-size="14.111px"
     font-weight="400"
     letter-spacing="0"
     transform="matrix(1.13145,0,0,1.13145,23.081,2.12)"
     word-spacing="0"
     style="line-height:1.25;-inkscape-font-specification:'AnjaliOldLipi, Normal';font-variant-ligatures:normal;font-variant-caps:normal;font-variant-numeric:normal;font-variant-east-asian:normal;white-space:pre;shape-inside:url(#d);"
     id="text88"
     xml:space="preserve"><tspan
       x="0.50585938"
       y="19.942671"><tspan
         style="font-weight:700;font-size:19.756px;font-family:'Noto Sans CJK JP';-inkscape-font-specification:'Noto Sans CJK JP, Bold';font-variant-ligatures:normal;font-variant-caps:normal;font-variant-numeric:normal;font-variant-east-asian:normal">ashrayBuild</tspan></tspan></text>
  <path
     d="m 13.67,8.545 -7.707,8.192 v 8.841 a 0.669,0.863 0 0 0 0.668,0.864 l 4.685,-0.016 a 0.669,0.863 0 0 0 0.665,-0.863 v -5.164 a 0.669,0.863 0 0 1 0.669,-0.863 h 2.675 a 0.669,0.863 0 0 1 0.669,0.863 v 5.16 a 0.669,0.863 0 0 0 0.669,0.866 l 4.682,0.017 a 0.669,0.863 0 0 0 0.669,-0.864 V 16.731 L 14.309,8.545 a 0.51,0.658 0 0 0 -0.64,0 z m 12.173,5.568 -3.495,-3.718 V 2.922 A 0.502,0.647 0 0 0 21.847,2.275 H 19.506 A 0.502,0.647 0 0 0 19.004,2.922 V 6.84 L 15.262,2.866 a 2.006,2.59 0 0 0 -2.55,0 L 2.132,14.113 a 0.502,0.647 0 0 0 -0.068,0.911 l 1.066,1.673 a 0.502,0.647 0 0 0 0.707,0.088 L 13.67,6.333 a 0.51,0.658 0 0 1 0.64,0 l 9.833,10.452 a 0.502,0.647 0 0 0 0.706,-0.087 l 1.066,-1.672 a 0.502,0.647 0 0 0 -0.071,-0.913 z"
     filter="url(#c)"
     opacity="0.094"
     id="path82" />
  <path
     fill="#0aa8a7"
     d="m 12.138,7.21 -7.706,8.192 v 8.842 A 0.669,0.863 0 0 0 5.1,25.107 l 4.685,-0.016 a 0.669,0.863 0 0 0 0.665,-0.863 v -5.163 a 0.669,0.863 0 0 1 0.669,-0.864 h 2.675 a 0.669,0.863 0 0 1 0.669,0.864 v 5.16 a 0.669,0.863 0 0 0 0.669,0.865 l 4.682,0.017 a 0.669,0.863 0 0 0 0.669,-0.863 V 15.396 L 12.778,7.21 a 0.51,0.658 0 0 0 -0.64,0 z M 24.312,12.778 20.817,9.06 V 1.588 A 0.502,0.647 0 0 0 20.316,0.94 H 17.975 A 0.502,0.647 0 0 0 17.473,1.588 V 5.505 L 13.731,1.531 a 2.006,2.59 0 0 0 -2.55,0 L 0.601,12.778 A 0.502,0.647 0 0 0 0.533,13.69 L 1.6,15.362 A 0.502,0.647 0 0 0 2.307,15.45 L 12.139,4.998 a 0.51,0.658 0 0 1 0.64,0 L 22.61,15.45 a 0.502,0.647 0 0 0 0.706,-0.086 l 1.066,-1.673 a 0.502,0.647 0 0 0 -0.071,-0.913 z"
     id="path90" />
</svg>
