<?xml version="1.0" encoding="UTF-8" standalone="no"?>
<svg
   xmlns:dc="http://purl.org/dc/elements/1.1/"
   xmlns:cc="http://creativecommons.org/ns#"
   xmlns:rdf="http://www.w3.org/1999/02/22-rdf-syntax-ns#"
   xmlns:svg="http://www.w3.org/2000/svg"
   xmlns="http://www.w3.org/2000/svg"
   xmlns:sodipodi="http://sodipodi.sourceforge.net/DTD/sodipodi-0.dtd"
   xmlns:inkscape="http://www.inkscape.org/namespaces/inkscape"
   viewBox="0 0 153.323 30.323"
   version="1.1"
   id="svg92"
   sodipodi:docname="logo.svg"
   inkscape:version="1.0.2 (e86c870879, 2021-01-15)">
  <metadata
     id="metadata96">
    <rdf:RDF>
      <cc:Work
         rdf:about="">
        <dc:format>image/svg+xml</dc:format>
        <dc:type
           rdf:resource="http://purl.org/dc/dcmitype/StillImage" />
      </cc:Work>
    </rdf:RDF>
  </metadata>
  <sodipodi:namedview
     pagecolor="#ffffff"
     bordercolor="#666666"
     borderopacity="1"
     objecttolerance="10"
     gridtolerance="10"
     guidetolerance="10"
     inkscape:pageopacity="0"
     inkscape:pageshadow="2"
     inkscape:window-width="1360"
     inkscape:window-height="699"
     id="namedview94"
     showgrid="false"
     inkscape:zoom="1.9416001"
     inkscape:cx="100.27972"
     inkscape:cy="28.993246"
     inkscape:window-x="0"
     inkscape:window-y="32"
     inkscape:window-maximized="1"
     inkscape:current-layer="text88"
     inkscape:document-rotation="0" />
  <defs
     id="defs74">
    <path
       id="d"
       d="M.505.087h151.066v29.334H.505z" />
    <filter
       id="e"
       width="1.025"
       height="1.044"
       x="-.002"
       y="-.014"
       color-interpolation-filters="sRGB">
      <feGaussianBlur
         stdDeviation=".079"
         id="feGaussianBlur64" />
    </filter>
    <path
       id="a"
       d="M.505.087h151.066v29.334H.505z" />
    <filter
       id="c"
       width="1.016"
       height="1.016"
       x="-.008"
       y="-.008"
       color-interpolation-filters="sRGB">
      <feGaussianBlur
         stdDeviation=".081"
         id="feGaussianBlur68" />
    </filter>
    <filter
       id="b"
       width="1.003"
       height="1.017"
       x="-.002"
       y="-.008"
       color-interpolation-filters="sRGB">
      <feGaussianBlur
         stdDeviation=".072"
         id="feGaussianBlur71" />
    </filter>
    <filter
       id="c-3"
       width="1.016"
       height="1.016"
       x="-0.0080000004"
       y="-0.0080000004"
       color-interpolation-filters="sRGB">
      <feGaussianBlur
         stdDeviation=".081"
         id="feGaussianBlur68-6" />
    </filter>
  </defs>
  <g
     aria-label="ashrayBuild"
     transform="matrix(1.13145,0,0,1.13145,24.612,3.454)"
     id="text80"
     style="font-weight:400;font-size:14.111px;line-height:1.25;font-family:AnjaliOldLipi;-inkscape-font-specification:'AnjaliOldLipi, Normal';font-variant-ligatures:normal;font-variant-caps:normal;font-variant-numeric:normal;font-variant-east-asian:normal;letter-spacing:0;word-spacing:0;white-space:pre;shape-inside:url(#a);opacity:0.094;filter:url(#b)">
    <path
       d="m 4.7929115,20.219255 c 1.264384,0 2.37072,-0.632192 3.3387641,-1.461944 h 0.079024 l 0.19756,1.18536 H 10.77898 v -6.460212 c 0,-3.200472 -1.4421884,-4.8797322 -4.2475405,-4.8797322 -1.738528,0 -3.3190081,0.6519481 -4.6229041,1.4619442 l 1.047068,1.916332 c 1.0273121,-0.59268 2.0151121,-1.047068 3.0424241,-1.047068 1.3631641,0 1.8373081,0.829752 1.8965761,1.916332 -4.4648561,0.474144 -6.3811882,1.718772 -6.3811882,4.089492 0,1.87682 1.303896,3.279496 3.2794961,3.279496 z m 0.948288,-2.27194 c -0.849508,0 -1.461944,-0.375364 -1.461944,-1.244628 0,-0.9878 0.908776,-1.738528 3.6153481,-2.07438 v 2.232428 c -0.711216,0.69146 -1.3236521,1.08658 -2.1534041,1.08658 z"
       style="font-weight:700;font-size:19.756px;font-family:'Noto Sans CJK JP';-inkscape-font-specification:'Noto Sans CJK JP, Bold';font-variant-ligatures:normal;font-variant-caps:normal;font-variant-numeric:normal;font-variant-east-asian:normal"
       id="path600" />
    <path
       d="m 16.903332,20.219255 c 2.884376,0 4.405588,-1.560724 4.405588,-3.496812 0,-2.054624 -1.619992,-2.785596 -3.081936,-3.338764 -1.165604,-0.434632 -2.192916,-0.730972 -2.192916,-1.540968 0,-0.632192 0.474144,-1.066824 1.4817,-1.066824 0.809996,0 1.58048,0.375364 2.37072,0.948288 l 1.303896,-1.7582841 c -0.908776,-0.69146 -2.153404,-1.3631641 -3.75364,-1.3631641 -2.528768,0 -4.129004,1.4026762 -4.129004,3.3782762 0,1.857064 1.560724,2.706572 2.9634,3.239984 1.165604,0.454388 2.311452,0.829752 2.311452,1.659504 0,0.69146 -0.4939,1.165604 -1.600236,1.165604 -1.027312,0 -1.9756,-0.434632 -2.9634,-1.205116 l -1.323652,1.817552 c 1.106336,0.908776 2.726328,1.560724 4.208028,1.560724 z"
       style="font-weight:700;font-size:19.756px;font-family:'Noto Sans CJK JP';-inkscape-font-specification:'Noto Sans CJK JP, Bold';font-variant-ligatures:normal;font-variant-caps:normal;font-variant-numeric:normal;font-variant-east-asian:normal"
       id="path602" />
    <path
       d="m 23.521572,19.942671 h 2.904132 v -7.60606 c 0.809996,-0.809996 1.38292,-1.244628 2.291696,-1.244628 1.08658,0 1.560724,0.59268 1.560724,2.311452 v 6.539236 h 2.904132 v -6.894844 c 0,-2.785596 -1.027312,-4.4451002 -3.417788,-4.4451002 -1.501456,0 -2.588036,0.7902401 -3.477056,1.6199922 L 26.425704,8.1483388 V 4.1773827 h -2.904132 z"
       style="font-weight:700;font-size:19.756px;font-family:'Noto Sans CJK JP';-inkscape-font-specification:'Noto Sans CJK JP, Bold';font-variant-ligatures:normal;font-variant-caps:normal;font-variant-numeric:normal;font-variant-east-asian:normal"
       id="path604" />
    <path
       d="m 36.165399,19.942671 h 2.904132 v -6.598504 c 0.612436,-1.600236 1.659504,-2.17316 2.528768,-2.17316 0.454388,0 0.770484,0.05927 1.165605,0.177804 l 0.4939,-2.5090121 c -0.335852,-0.138292 -0.69146,-0.2370721 -1.303897,-0.2370721 -1.145848,0 -2.331208,0.7902401 -3.141204,2.2324282 h -0.05927 L 38.536119,8.8793109 h -2.37072 z"
       style="font-weight:700;font-size:19.756px;font-family:'Noto Sans CJK JP';-inkscape-font-specification:'Noto Sans CJK JP, Bold';font-variant-ligatures:normal;font-variant-caps:normal;font-variant-numeric:normal;font-variant-east-asian:normal"
       id="path606" />
    <path
       d="m 46.892883,20.219255 c 1.264384,0 2.37072,-0.632192 3.338764,-1.461944 h 0.07902 l 0.19756,1.18536 h 2.37072 v -6.460212 c 0,-3.200472 -1.442188,-4.8797322 -4.24754,-4.8797322 -1.738528,0 -3.319008,0.6519481 -4.622904,1.4619442 l 1.047068,1.916332 c 1.027312,-0.59268 2.015112,-1.047068 3.042424,-1.047068 1.363164,0 1.837308,0.829752 1.896576,1.916332 -4.464856,0.474144 -6.381188,1.718772 -6.381188,4.089492 0,1.87682 1.303896,3.279496 3.279496,3.279496 z m 0.948288,-2.27194 c -0.849508,0 -1.461944,-0.375364 -1.461944,-1.244628 0,-0.9878 0.908776,-1.738528 3.615348,-2.07438 v 2.232428 c -0.711216,0.69146 -1.323652,1.08658 -2.153404,1.08658 z"
       style="font-weight:700;font-size:19.756px;font-family:'Noto Sans CJK JP';-inkscape-font-specification:'Noto Sans CJK JP, Bold';font-variant-ligatures:normal;font-variant-caps:normal;font-variant-numeric:normal;font-variant-east-asian:normal"
       id="path608" />
    <path
       d="m 56.810388,24.387771 c 2.4695,0 3.65486,-1.501456 4.622904,-4.109248 L 65.364736,8.8793109 H 62.57914 l -1.521212,5.1365601 c -0.256828,1.027312 -0.533412,2.094136 -0.79024,3.121448 h -0.09878 c -0.316096,-1.066824 -0.59268,-2.133648 -0.928532,-3.121448 L 57.482092,8.8793109 h -2.923888 l 4.306808,10.8658001 -0.19756,0.651948 c -0.316096,0.968044 -0.948288,1.67926 -2.07438,1.67926 -0.256828,0 -0.572924,-0.07902 -0.770484,-0.138292 l -0.533412,2.232428 c 0.434632,0.138292 0.869264,0.217316 1.521212,0.217316 z"
       style="font-weight:700;font-size:19.756px;font-family:'Noto Sans CJK JP';-inkscape-font-specification:'Noto Sans CJK JP, Bold';font-variant-ligatures:normal;font-variant-caps:normal;font-variant-numeric:normal;font-variant-east-asian:normal"
       id="path610" />
    <path
       d="m 67.419348,19.942671 h 5.215584 c 3.220228,0 5.669972,-1.363164 5.669972,-4.306808 0,-1.9756 -1.165604,-3.081936 -2.746084,-3.4573 v -0.09878 c 1.244628,-0.434632 1.995356,-1.817552 1.995356,-3.1609601 0,-2.7263281 -2.291696,-3.6153481 -5.294608,-3.6153481 h -4.84022 z m 2.923888,-8.672884 V 7.5556588 h 1.738528 c 1.758284,0 2.627548,0.513656 2.627548,1.7977961 0,1.1656041 -0.809996,1.9163321 -2.66706,1.9163321 z m 0,6.4207 v -4.267296 h 2.034868 c 2.015112,0 3.081936,0.612436 3.081936,2.034868 0,1.521212 -1.08658,2.232428 -3.081936,2.232428 z"
       style="font-weight:700;font-size:19.756px;font-family:'Noto Sans CJK JP';-inkscape-font-specification:'Noto Sans CJK JP, Bold';font-variant-ligatures:normal;font-variant-caps:normal;font-variant-numeric:normal;font-variant-east-asian:normal"
       id="path612" />
    <path
       d="m 83.935362,20.219255 c 1.501456,0 2.56828,-0.730972 3.516568,-1.857064 h 0.07902 l 0.217316,1.58048 h 2.37072 V 8.8793109 h -2.904132 v 7.4677681 c -0.750728,0.9878 -1.343408,1.38292 -2.252184,1.38292 -1.066824,0 -1.540968,-0.612436 -1.540968,-2.311452 V 8.8793109 H 80.51757 v 6.9146001 c 0,2.76584 1.027312,4.425344 3.417788,4.425344 z"
       style="font-weight:700;font-size:19.756px;font-family:'Noto Sans CJK JP';-inkscape-font-specification:'Noto Sans CJK JP, Bold';font-variant-ligatures:normal;font-variant-caps:normal;font-variant-numeric:normal;font-variant-east-asian:normal"
       id="path614" />
    <path
       d="m 93.220667,19.942671 h 2.904132 V 8.8793109 H 93.220667 Z M 94.682611,7.1012708 c 0.9878,0 1.67926,-0.632192 1.67926,-1.600236 0,-0.9482881 -0.69146,-1.5804801 -1.67926,-1.5804801 -1.007556,0 -1.699016,0.632192 -1.699016,1.5804801 0,0.968044 0.69146,1.600236 1.699016,1.600236 z"
       style="font-weight:700;font-size:19.756px;font-family:'Noto Sans CJK JP';-inkscape-font-specification:'Noto Sans CJK JP, Bold';font-variant-ligatures:normal;font-variant-caps:normal;font-variant-numeric:normal;font-variant-east-asian:normal"
       id="path616" />
    <path
       d="m 101.95279,20.219255 c 0.69146,0 1.16561,-0.118536 1.50146,-0.256828 l -0.35561,-2.153404 c -0.19756,0.03951 -0.27658,0.03951 -0.39512,0.03951 -0.27658,0 -0.57292,-0.217316 -0.57292,-0.88902 V 4.1773827 H 99.226465 V 16.840979 c 0,2.054624 0.711216,3.378276 2.726325,3.378276 z"
       style="font-weight:700;font-size:19.756px;font-family:'Noto Sans CJK JP';-inkscape-font-specification:'Noto Sans CJK JP, Bold';font-variant-ligatures:normal;font-variant-caps:normal;font-variant-numeric:normal;font-variant-east-asian:normal"
       id="path618" />
    <path
       d="m 109.34151,20.219255 c 1.14585,0 2.25219,-0.632192 3.06218,-1.422432 h 0.079 L 112.7,19.942671 h 2.351 V 4.1773827 h -2.88438 v 3.8919321 l 0.0988,1.7385281 c -0.79024,-0.730972 -1.56072,-1.2051161 -2.80535,-1.2051161 -2.39048,0 -4.64266,2.2126722 -4.64266,5.8082642 0,3.635104 1.77804,5.808264 4.52412,5.808264 z m 0.75073,-2.390476 c -1.46194,0 -2.2917,-1.145848 -2.2917,-3.437544 0,-2.212672 1.04707,-3.398032 2.2917,-3.398032 0.69146,0 1.40268,0.217316 2.07438,0.829752 v 4.859976 c -0.65195,0.829752 -1.3039,1.145848 -2.07438,1.145848 z"
       style="font-weight:700;font-size:19.756px;font-family:'Noto Sans CJK JP';-inkscape-font-specification:'Noto Sans CJK JP, Bold';font-variant-ligatures:normal;font-variant-caps:normal;font-variant-numeric:normal;font-variant-east-asian:normal"
       id="path620" />
  </g>
  <g
     aria-label="ashrayBuild"
     transform="matrix(1.13145,0,0,1.13145,23.081,2.12)"
     id="text88"
     style="font-weight:400;font-size:14.111px;line-height:1.25;font-family:AnjaliOldLipi;-inkscape-font-specification:'AnjaliOldLipi, Normal';font-variant-ligatures:normal;font-variant-caps:normal;font-variant-numeric:normal;font-variant-east-asian:normal;letter-spacing:0;word-spacing:0;white-space:pre;shape-inside:url(#d);fill:#0aa8a7;filter:url(#e)">
    <path
       d="m 4.7929115,20.219255 c 1.264384,0 2.37072,-0.632192 3.3387641,-1.461944 h 0.079024 l 0.19756,1.18536 H 10.77898 v -6.460212 c 0,-3.200472 -1.4421884,-4.8797322 -4.2475405,-4.8797322 -1.738528,0 -3.3190081,0.6519481 -4.6229041,1.4619442 l 1.047068,1.916332 c 1.0273121,-0.59268 2.0151121,-1.047068 3.0424241,-1.047068 1.3631641,0 1.8373081,0.829752 1.8965761,1.916332 -4.4648561,0.474144 -6.3811882,1.718772 -6.3811882,4.089492 0,1.87682 1.303896,3.279496 3.2794961,3.279496 z m 0.948288,-2.27194 c -0.849508,0 -1.461944,-0.375364 -1.461944,-1.244628 0,-0.9878 0.908776,-1.738528 3.6153481,-2.07438 v 2.232428 c -0.711216,0.69146 -1.3236521,1.08658 -2.1534041,1.08658 z"
       style="font-weight:700;font-size:19.756px;font-family:'Noto Sans CJK JP';-inkscape-font-specification:'Noto Sans CJK JP, Bold';font-variant-ligatures:normal;font-variant-caps:normal;font-variant-numeric:normal;font-variant-east-asian:normal"
       id="path623" />
    <path
       d="m 16.903332,20.219255 c 2.884376,0 4.405588,-1.560724 4.405588,-3.496812 0,-2.054624 -1.619992,-2.785596 -3.081936,-3.338764 -1.165604,-0.434632 -2.192916,-0.730972 -2.192916,-1.540968 0,-0.632192 0.474144,-1.066824 1.4817,-1.066824 0.809996,0 1.58048,0.375364 2.37072,0.948288 l 1.303896,-1.7582841 c -0.908776,-0.69146 -2.153404,-1.3631641 -3.75364,-1.3631641 -2.528768,0 -4.129004,1.4026762 -4.129004,3.3782762 0,1.857064 1.560724,2.706572 2.9634,3.239984 1.165604,0.454388 2.311452,0.829752 2.311452,1.659504 0,0.69146 -0.4939,1.165604 -1.600236,1.165604 -1.027312,0 -1.9756,-0.434632 -2.9634,-1.205116 l -1.323652,1.817552 c 1.106336,0.908776 2.726328,1.560724 4.208028,1.560724 z"
       style="font-weight:700;font-size:19.756px;font-family:'Noto Sans CJK JP';-inkscape-font-specification:'Noto Sans CJK JP, Bold';font-variant-ligatures:normal;font-variant-caps:normal;font-variant-numeric:normal;font-variant-east-asian:normal"
       id="path625" />
    <path
       d="m 23.521572,19.942671 h 2.904132 v -7.60606 c 0.809996,-0.809996 1.38292,-1.244628 2.291696,-1.244628 1.08658,0 1.560724,0.59268 1.560724,2.311452 v 6.539236 h 2.904132 v -6.894844 c 0,-2.785596 -1.027312,-4.4451002 -3.417788,-4.4451002 -1.501456,0 -2.588036,0.7902401 -3.477056,1.6199922 L 26.425704,8.1483388 V 4.1773827 h -2.904132 z"
       style="font-weight:700;font-size:19.756px;font-family:'Noto Sans CJK JP';-inkscape-font-specification:'Noto Sans CJK JP, Bold';font-variant-ligatures:normal;font-variant-caps:normal;font-variant-numeric:normal;font-variant-east-asian:normal"
       id="path627" />
    <path
       d="m 36.165399,19.942671 h 2.904132 v -6.598504 c 0.612436,-1.600236 1.659504,-2.17316 2.528768,-2.17316 0.454388,0 0.770484,0.05927 1.165605,0.177804 l 0.4939,-2.5090121 c -0.335852,-0.138292 -0.69146,-0.2370721 -1.303897,-0.2370721 -1.145848,0 -2.331208,0.7902401 -3.141204,2.2324282 h -0.05927 L 38.536119,8.8793109 h -2.37072 z"
       style="font-weight:700;font-size:19.756px;font-family:'Noto Sans CJK JP';-inkscape-font-specification:'Noto Sans CJK JP, Bold';font-variant-ligatures:normal;font-variant-caps:normal;font-variant-numeric:normal;font-variant-east-asian:normal"
       id="path629" />
    <path
       d="m 46.892883,20.219255 c 1.264384,0 2.37072,-0.632192 3.338764,-1.461944 h 0.07902 l 0.19756,1.18536 h 2.37072 v -6.460212 c 0,-3.200472 -1.442188,-4.8797322 -4.24754,-4.8797322 -1.738528,0 -3.319008,0.6519481 -4.622904,1.4619442 l 1.047068,1.916332 c 1.027312,-0.59268 2.015112,-1.047068 3.042424,-1.047068 1.363164,0 1.837308,0.829752 1.896576,1.916332 -4.464856,0.474144 -6.381188,1.718772 -6.381188,4.089492 0,1.87682 1.303896,3.279496 3.279496,3.279496 z m 0.948288,-2.27194 c -0.849508,0 -1.461944,-0.375364 -1.461944,-1.244628 0,-0.9878 0.908776,-1.738528 3.615348,-2.07438 v 2.232428 c -0.711216,0.69146 -1.323652,1.08658 -2.153404,1.08658 z"
       style="font-weight:700;font-size:19.756px;font-family:'Noto Sans CJK JP';-inkscape-font-specification:'Noto Sans CJK JP, Bold';font-variant-ligatures:normal;font-variant-caps:normal;font-variant-numeric:normal;font-variant-east-asian:normal"
       id="path631" />
    <path
       d="m 56.810388,24.387771 c 2.4695,0 3.65486,-1.501456 4.622904,-4.109248 L 65.364736,8.8793109 H 62.57914 l -1.521212,5.1365601 c -0.256828,1.027312 -0.533412,2.094136 -0.79024,3.121448 h -0.09878 c -0.316096,-1.066824 -0.59268,-2.133648 -0.928532,-3.121448 L 57.482092,8.8793109 h -2.923888 l 4.306808,10.8658001 -0.19756,0.651948 c -0.316096,0.968044 -0.948288,1.67926 -2.07438,1.67926 -0.256828,0 -0.572924,-0.07902 -0.770484,-0.138292 l -0.533412,2.232428 c 0.434632,0.138292 0.869264,0.217316 1.521212,0.217316 z"
       style="font-weight:700;font-size:19.756px;font-family:'Noto Sans CJK JP';-inkscape-font-specification:'Noto Sans CJK JP, Bold';font-variant-ligatures:normal;font-variant-caps:normal;font-variant-numeric:normal;font-variant-east-asian:normal"
       id="path633" />
    <path
       d="m 67.419348,19.942671 h 5.215584 c 3.220228,0 5.669972,-1.363164 5.669972,-4.306808 0,-1.9756 -1.165604,-3.081936 -2.746084,-3.4573 v -0.09878 c 1.244628,-0.434632 1.995356,-1.817552 1.995356,-3.1609601 0,-2.7263281 -2.291696,-3.6153481 -5.294608,-3.6153481 h -4.84022 z m 2.923888,-8.672884 V 7.5556588 h 1.738528 c 1.758284,0 2.627548,0.513656 2.627548,1.7977961 0,1.1656041 -0.809996,1.9163321 -2.66706,1.9163321 z m 0,6.4207 v -4.267296 h 2.034868 c 2.015112,0 3.081936,0.612436 3.081936,2.034868 0,1.521212 -1.08658,2.232428 -3.081936,2.232428 z"
       style="font-weight:700;font-size:19.756px;font-family:'Noto Sans CJK JP';-inkscape-font-specification:'Noto Sans CJK JP, Bold';font-variant-ligatures:normal;font-variant-caps:normal;font-variant-numeric:normal;font-variant-east-asian:normal"
       id="path635" />
    <path
       d="m 83.935362,20.219255 c 1.501456,0 2.56828,-0.730972 3.516568,-1.857064 h 0.07902 l 0.217316,1.58048 h 2.37072 V 8.8793109 h -2.904132 v 7.4677681 c -0.750728,0.9878 -1.343408,1.38292 -2.252184,1.38292 -1.066824,0 -1.540968,-0.612436 -1.540968,-2.311452 V 8.8793109 H 80.51757 v 6.9146001 c 0,2.76584 1.027312,4.425344 3.417788,4.425344 z"
       style="font-weight:700;font-size:19.756px;font-family:'Noto Sans CJK JP';-inkscape-font-specification:'Noto Sans CJK JP, Bold';font-variant-ligatures:normal;font-variant-caps:normal;font-variant-numeric:normal;font-variant-east-asian:normal"
       id="path637" />
    <path
       d="m 93.220667,19.942671 h 2.904132 V 8.8793109 H 93.220667 Z M 94.682611,7.1012708 c 0.9878,0 1.67926,-0.632192 1.67926,-1.600236 0,-0.9482881 -0.69146,-1.5804801 -1.67926,-1.5804801 -1.007556,0 -1.699016,0.632192 -1.699016,1.5804801 0,0.968044 0.69146,1.600236 1.699016,1.600236 z"
       style="font-weight:700;font-size:19.756px;font-family:'Noto Sans CJK JP';-inkscape-font-specification:'Noto Sans CJK JP, Bold';font-variant-ligatures:normal;font-variant-caps:normal;font-variant-numeric:normal;font-variant-east-asian:normal"
       id="path639" />
    <path
       d="m 101.95279,20.219255 c 0.69146,0 1.16561,-0.118536 1.50146,-0.256828 l -0.35561,-2.153404 c -0.19756,0.03951 -0.27658,0.03951 -0.39512,0.03951 -0.27658,0 -0.57292,-0.217316 -0.57292,-0.88902 V 4.1773827 H 99.226465 V 16.840979 c 0,2.054624 0.711216,3.378276 2.726325,3.378276 z"
       style="font-weight:700;font-size:19.756px;font-family:'Noto Sans CJK JP';-inkscape-font-specification:'Noto Sans CJK JP, Bold';font-variant-ligatures:normal;font-variant-caps:normal;font-variant-numeric:normal;font-variant-east-asian:normal"
       id="path641" />
    <path
       d="m 109.34151,20.219255 c 1.14585,0 2.25219,-0.632192 3.06218,-1.422432 h 0.079 L 112.7,19.942671 h 2.351 V 4.1773827 h -2.88438 v 3.8919321 l 0.0988,1.7385281 c -0.79024,-0.730972 -1.56072,-1.2051161 -2.80535,-1.2051161 -2.39048,0 -4.64266,2.2126722 -4.64266,5.8082642 0,3.635104 1.77804,5.808264 4.52412,5.808264 z m 0.75073,-2.390476 c -1.46194,0 -2.2917,-1.145848 -2.2917,-3.437544 0,-2.212672 1.04707,-3.398032 2.2917,-3.398032 0.69146,0 1.40268,0.217316 2.07438,0.829752 v 4.859976 c -0.65195,0.829752 -1.3039,1.145848 -2.07438,1.145848 z"
       style="font-weight:700;font-size:19.756px;font-family:'Noto Sans CJK JP';-inkscape-font-specification:'Noto Sans CJK JP, Bold';font-variant-ligatures:normal;font-variant-caps:normal;font-variant-numeric:normal;font-variant-east-asian:normal"
       id="path643" />
  </g>
  <path
     d="m 13.67,8.545 -7.707,8.192 v 8.841 a 0.669,0.863 0 0 0 0.668,0.864 l 4.685,-0.016 a 0.669,0.863 0 0 0 0.665,-0.863 v -5.164 a 0.669,0.863 0 0 1 0.669,-0.863 h 2.675 a 0.669,0.863 0 0 1 0.669,0.863 v 5.16 a 0.669,0.863 0 0 0 0.669,0.866 l 4.682,0.017 a 0.669,0.863 0 0 0 0.669,-0.864 V 16.731 L 14.309,8.545 a 0.51,0.658 0 0 0 -0.64,0 z m 12.173,5.568 -3.495,-3.718 V 2.922 A 0.502,0.647 0 0 0 21.847,2.275 H 19.506 A 0.502,0.647 0 0 0 19.004,2.922 V 6.84 L 15.262,2.866 a 2.006,2.59 0 0 0 -2.55,0 L 2.132,14.113 a 0.502,0.647 0 0 0 -0.068,0.911 l 1.066,1.673 a 0.502,0.647 0 0 0 0.707,0.088 L 13.67,6.333 a 0.51,0.658 0 0 1 0.64,0 l 9.833,10.452 a 0.502,0.647 0 0 0 0.706,-0.087 l 1.066,-1.672 a 0.502,0.647 0 0 0 -0.071,-0.913 z"
     filter="url(#c)"
     opacity="0.094"
     id="path82" />
  <path
     fill="#0aa8a7"
     d="m 12.138,7.21 -7.706,8.192 v 8.842 A 0.669,0.863 0 0 0 5.1,25.107 l 4.685,-0.016 a 0.669,0.863 0 0 0 0.665,-0.863 v -5.163 a 0.669,0.863 0 0 1 0.669,-0.864 h 2.675 a 0.669,0.863 0 0 1 0.669,0.864 v 5.16 a 0.669,0.863 0 0 0 0.669,0.865 l 4.682,0.017 a 0.669,0.863 0 0 0 0.669,-0.863 V 15.396 L 12.778,7.21 a 0.51,0.658 0 0 0 -0.64,0 z M 24.312,12.778 20.817,9.06 V 1.588 A 0.502,0.647 0 0 0 20.316,0.94 H 17.975 A 0.502,0.647 0 0 0 17.473,1.588 V 5.505 L 13.731,1.531 a 2.006,2.59 0 0 0 -2.55,0 L 0.601,12.778 A 0.502,0.647 0 0 0 0.533,13.69 L 1.6,15.362 A 0.502,0.647 0 0 0 2.307,15.45 L 12.139,4.998 a 0.51,0.658 0 0 1 0.64,0 L 22.61,15.45 a 0.502,0.647 0 0 0 0.706,-0.086 l 1.066,-1.673 a 0.502,0.647 0 0 0 -0.071,-0.913 z"
     id="path90" />
</svg>
